Patient4_TMGait_0pt7_02_right_47_GRF.mot
version=1
nRows=26
nColumns=19
inDegrees=no
endheader
time	F1x	F1y	F1z	M1x	M1y	M1z	F2x	F2y	F2z	M2x	M2y	M2z	EC1x	EC1y	EC1z	EC2x	EC2y	EC2z
53.24	-19.2453	777.855	77.5995	-253.1148	-81.6329	738.4069	29.4629	17.2758	12.6742	1.6661	-13.63	25.2895	-0.0592	0.0182	-0.0073	-0.0462	0.0165	0.9585
53.2511	-12.8993	780.072	75.3657	-254.8142	-76.5488	742.8881	20.0954	13.0564	8.4959	1.658	-9.1806	18.562	-0.0592	0.0182	-0.0073	-0.0462	0.0165	0.9585
53.2621	-7.0061	781.8798	73.6049	-256.1137	-72.0241	745.5696	12.1252	9.5445	5.0161	1.6496	-5.4302	12.9707	-0.0592	0.0182	-0.0073	-0.0462	0.0165	0.9585
53.2732	-1.8678	782.5522	72.2422	-256.7225	-68.1426	745.67	5.9916	6.9221	2.3976	1.6491	-2.5769	8.8019	-0.0592	0.0182	-0.0073	-0.0462	0.0165	0.9585
53.2843	2.4854	781.4016	71.2144	-256.4318	-64.8891	742.6902	1.7324	5.1646	0.60857	1.6615	-0.61239	5.9825	-0.0592	0.0182	-0.0073	-0.0462	0.0165	0.9585
53.2954	6.1279	777.9528	70.4079	-255.1397	-62.142	736.4713	-0.93883	4.1089	-0.48226	1.679	0.60104	4.28	-0.0592	0.0182	-0.0073	-0.0462	0.0165	0.9585
53.3064	9.2782	772.0542	69.7292	-252.8572	-59.7515	727.1746	-2.3774	3.5533	-1.0604	1.6905	1.2576	3.3805	-0.0592	0.0182	-0.0073	-0.0462	0.0165	0.9585
53.3175	12.0486	763.9261	69.2148	-249.7092	-57.6978	715.2867	-2.9668	3.2758	-1.2913	1.6736	1.5355	2.9513	-0.0592	0.0182	-0.0073	-0.0462	0.0165	0.9585
53.3286	14.6735	754.1462	68.8147	-245.9362	-55.8515	701.5458	-3.0255	3.0529	-1.3184	1.5929	1.5905	2.6899	-0.0592	0.0182	-0.0073	-0.0462	0.0165	0.9585
53.3396	17.2873	743.5587	68.6268	-241.8506	-54.241	686.903	-2.7947	2.6726	-1.2467	1.4048	1.5354	2.3015	-0.0592	0.0182	-0.0073	-0.0462	0.0165	0.9585
53.3507	20.0623	733.1437	68.6108	-237.8073	-52.7665	672.3134	-2.4477	1.9533	-1.1407	1.0644	1.4419	1.5669	-0.0592	0.0182	-0.0073	-0.0462	0.0165	0.9585
53.3618	23.1135	723.9081	68.822	-234.1524	-51.4327	658.7561	-2.0536	0.71487	-1.0394	0.52261	1.338	0.2495	-0.0592	0.0182	-0.0073	-0.0462	0.0165	0.9585
53.3729	26.5309	716.7067	69.2516	-231.1804	-50.1971	646.9889	-1.6853	-1.1105	-0.94968	-0.24241	1.2293	-1.727	-0.0592	0.0182	-0.0073	-0.0462	0.0165	0.9585
53.3839	30.3563	712.1739	69.9284	-229.0994	-49.0673	637.5954	-1.3149	-3.5463	-0.85597	-1.2309	1.0808	-4.4002	-0.0592	0.0182	-0.0073	-0.0462	0.0165	0.9585
53.395	34.6009	710.622	70.914	-228.0068	-48.0879	630.8406	-0.95985	-6.392	-0.72993	-2.3688	0.86138	-7.5255	-0.0592	0.0182	-0.0073	-0.0462	0.0165	0.9585
53.4061	39.1887	712.0418	72.2023	-227.8943	-47.2595	626.7042	-0.54324	-9.2502	-0.52214	-3.4959	0.50308	-10.6815	-0.0592	0.0182	-0.0073	-0.0462	0.0165	0.9585
53.4171	44.0399	716.0906	73.8421	-228.6466	-46.639	624.9037	-0.068768	-11.3303	-0.18377	-4.3028	-0.044686	-12.9653	-0.0592	0.0182	-0.0073	-0.0462	0.0165	0.9585
53.4282	48.9863	722.1277	75.7464	-230.0585	-46.1943	624.9156	0.52524	-11.4134	0.33439	-4.3056	-0.84361	-13.0451	-0.0592	0.0182	-0.0073	-0.0462	0.0165	0.9585
53.4393	53.8468	729.2589	77.8539	-231.841	-45.9324	626.0153	1.1603	-7.72	1.0719	-2.8067	-1.9064	-8.9055	-0.0592	0.0182	-0.0073	-0.0462	0.0165	0.9585
53.4504	58.4029	736.3342	79.9636	-233.6328	-45.7663	627.305	1.8156	2.0216	2.0317	1.0894	-3.2048	1.975	-0.0592	0.0182	-0.0073	-0.0462	0.0165	0.9585
53.4614	62.3928	741.9786	81.847	-235.0099	-45.6012	627.6901	2.2611	20.4903	3.1621	8.428	-4.5871	22.6014	-0.0592	0.0182	-0.0073	-0.0462	0.0165	0.9585
53.4725	65.6102	744.659	83.1908	-235.5027	-45.2656	625.9908	2.2861	50.3227	4.3192	20.238	-5.7781	55.9012	-0.0592	0.0182	-0.0073	-0.0462	0.0165	0.9585
53.4836	67.886	742.7325	83.6697	-234.6093	-44.5613	620.9024	1.4477	93.4861	5.2196	37.2667	-6.2771	104.088	-0.0592	0.0182	-0.0073	-0.0462	0.0165	0.9585
53.4946	69.1428	734.5465	82.9736	-231.8222	-43.2842	611.1248	-0.73953	150.1493	5.4178	59.5457	-5.3698	167.3095	-0.0592	0.0182	-0.0073	-0.0462	0.0165	0.9585
53.5057	69.4175	718.4986	80.8339	-226.6516	-41.2255	595.3637	-5.1626	217.402	4.3381	85.8742	-2.0763	242.3292	-0.0592	0.0182	-0.0073	-0.0462	0.0165	0.9585
53.5168	68.739	693.2986	77.0729	-218.7064	-38.2502	572.562	-12.4087	287.9206	1.3582	113.3389	4.4839	320.9193	-0.0592	0.0182	-0.0073	-0.0462	0.0165	0.9585
